<svg xmlns="http://www.w3.org/2000/svg" viewBox="0 0 2077.49 512">
  <defs>
    <style>
      .a {
        fill: #fff;
      }
    </style>
  </defs>
  <title>NemCV_logo_negativ</title>
  <path class="a" d="M414,148.75a10,10,0,0,0,10-10V30A30,30,0,0,0,394,0H30A30,30,0,0,0,0,30V482a30,30,0,0,0,30,30H394a30,30,0,0,0,30-30h0V408.33a10,10,0,1,0-20,0V482a10,10,0,0,1-10,10H30a10,10,0,0,1-10-10V30A10,10,0,0,1,30,20H394a10,10,0,0,1,10,10V138.75A10,10,0,0,0,414,148.75Z"/>
  <path class="a" d="M212,54a92,92,0,0,0-63.12,158.87,11.32,11.32,0,0,0,1.08,1,91.83,91.83,0,0,0,124.08,0,11.32,11.32,0,0,0,1.08-1A92,92,0,0,0,212,54Zm0,164a71.56,71.56,0,0,1-43.49-14.67,50,50,0,0,1,87,0A71.56,71.56,0,0,1,212,218Zm-16-76v-6.5a16,16,0,0,1,32,0V142a16,16,0,0,1-32,0Zm73.94,46.68A69.35,69.35,0,0,0,240.48,164,35.82,35.82,0,0,0,248,142v-6.5a36,36,0,0,0-72,0V142a35.82,35.82,0,0,0,7.52,22,69.38,69.38,0,0,0-29.46,24.69,72,72,0,1,1,115.88,0Z"/>
  <path class="a" d="M266,438H212a10,10,0,0,0,0,20h54a10,10,0,0,0,0-20Z"/>
  <path class="a" d="M266,382H124a10,10,0,0,0,0,20H266a10,10,0,0,0,0-20Z"/>
  <path class="a" d="M266,326H124a10,10,0,0,0,0,20H266a10,10,0,0,0,0-20Z"/>
  <path class="a" d="M88.36,272.93A10,10,0,1,0,91.29,280,10,10,0,0,0,88.36,272.93Z"/>
  <path class="a" d="M88.36,328.93A10,10,0,1,0,91.29,336,10,10,0,0,0,88.36,328.93Z"/>
  <path class="a" d="M88.36,384.93A10,10,0,1,0,91.29,392,10,10,0,0,0,88.36,384.93Z"/>
  <path class="a" d="M266,270H124a10,10,0,0,0,0,20H266a10,10,0,0,0,0-20Z"/>
  <path class="a" d="M491,130.32a42,42,0,0,0-57.38,15.36h0l-125.84,218a9.93,9.93,0,0,0-1.28,3.89l-8.86,79.34a10,10,0,0,0,15.87,9.16l64.29-47.34a10.17,10.17,0,0,0,2.73-3l125.84-218a42,42,0,0,0-15.32-57.39ZM320.06,426.39,324.68,385l28.94,16.71ZM368.21,387,330.1,365l101-174.91,38.1,22ZM489.05,177.69l-9.86,17.08-38.11-22,9.86-17.08a22,22,0,1,1,38.11,22Z"/>
  <g>
    <path class="a" d="M902.51,402H825.88L702.17,174.44h-1.75q3.71,60.29,3.7,86V402H650.24V101.19h76L849.8,326.49h1.36q-2.91-58.64-2.92-82.92V101.19h54.27Z"/>
    <path class="a" d="M1067.84,406.12q-52.51,0-82.08-30.66t-29.57-86.83q0-57.81,27.33-89.4t75.56-31.58q46.11,0,71.78,27.78t25.67,76.74v30.45H1016.29q1,26.76,15,41.77t39.29,15a154.44,154.44,0,0,0,37.15-4.32,178.9,178.9,0,0,0,36.57-13.79v48.56A134.2,134.2,0,0,1,1111,402.1Q1093.32,406.12,1067.84,406.12Zm-8.37-193.82q-18.87,0-29.56,12.65t-12.25,35.91h83.24q-.39-23.25-11.47-35.91t-30-12.65Z"/>
    <path class="a" d="M1399.46,402h-59.32V267.65q0-24.9-7.88-37.35t-24.8-12.45q-22.76,0-33.06,17.7t-10.31,58.23V402h-59.32V172h45.31l8,29.42h3.31a61.78,61.78,0,0,1,25.28-24.79q16.53-8.94,37.93-8.95,48.81,0,66.13,33.74H1396a60.16,60.16,0,0,1,25.77-24.89q17-8.85,38.42-8.85,36.94,0,55.92,20.06t19,64.3V402h-59.52V267.65q0-24.9-7.88-37.35t-24.8-12.45q-21.78,0-32.57,16.46t-10.8,52.27Z"/>
    <path class="a" d="M1721.36,150q-34,0-52.71,27T1650,252.42Q1650,353,1721.36,353q30,0,72.55-15.84v53.49q-35,15.44-78.19,15.44-62,0-94.92-39.82T1587.93,252q0-46.91,16.15-82.2t46.38-54.11q30.26-18.82,70.9-18.83,41.43,0,83.25,21.2l-19.45,51.84a315,315,0,0,0-32.1-14A91.33,91.33,0,0,0,1721.36,150Z"/>
    <path class="a" d="M2016.61,101.19h60.88L1980.83,402h-65.75l-96.47-300.81h60.88l53.49,179q4.47,15.84,9.24,36.93t5.93,29.32q2.13-18.93,14.59-66.25Z"/>
  </g>
</svg>
